<svg xmlns="http://www.w3.org/2000/svg" xmlns:xlink="http://www.w3.org/1999/xlink" width="500" zoomAndPan="magnify" viewBox="0 0 375 74.999997" height="100" preserveAspectRatio="xMidYMid meet" version="1.0"><defs><g/></defs><g fill="#000000" fill-opacity="1"><g transform="translate(15.008076, 55.464064)"><g><path d="M 6.515625 0.0625 L 6.515625 -43.3125 L 18.90625 -43.3125 C 20.8125 -43.3125 22.59375 -43.035156 24.25 -42.484375 C 25.90625 -41.929688 27.351562 -41.140625 28.59375 -40.109375 C 29.832031 -39.078125 30.800781 -37.816406 31.5 -36.328125 C 32.195312 -34.847656 32.546875 -33.164062 32.546875 -31.28125 C 32.546875 -29.34375 32.160156 -27.597656 31.390625 -26.046875 C 30.617188 -24.503906 29.539062 -23.210938 28.15625 -22.171875 C 26.78125 -21.140625 25.160156 -20.429688 23.296875 -20.046875 L 35.0625 0.0625 L 29.34375 0.0625 L 18.515625 -19.40625 L 11.390625 -19.40625 L 11.390625 0.0625 Z M 11.453125 -23.890625 L 19.703125 -23.890625 C 21.265625 -23.972656 22.648438 -24.304688 23.859375 -24.890625 C 25.066406 -25.472656 26.015625 -26.296875 26.703125 -27.359375 C 27.398438 -28.421875 27.75 -29.726562 27.75 -31.28125 C 27.75 -32.9375 27.375 -34.335938 26.625 -35.484375 C 25.882812 -36.628906 24.851562 -37.503906 23.53125 -38.109375 C 22.207031 -38.710938 20.6875 -39.015625 18.96875 -39.015625 L 11.453125 -39.015625 Z M 11.453125 -23.890625 "/></g></g><g transform="translate(52.462459, 55.464064)"><g><path d="M 6.515625 0 L 6.515625 -43.375 L 34.59375 -43.375 L 34.59375 -39.171875 L 11.390625 -39.171875 L 11.390625 -23.765625 L 31.5625 -23.765625 L 31.5625 -19.671875 L 11.390625 -19.671875 L 11.390625 -4.453125 L 34.59375 -4.453125 L 34.59375 0 Z M 6.515625 0 "/></g></g><g transform="translate(90.500149, 55.464064)"><g><path d="M 1.9375 0 L 18.234375 -43.375 L 21.984375 -43.375 L 38.15625 0 L 32.9375 0 L 29.625 -9.421875 L 10.5625 -9.421875 L 7.25 0 Z M 12.1875 -13.875 L 27.96875 -13.875 L 20.140625 -36.234375 Z M 12.1875 -13.875 "/></g></g><g transform="translate(130.594759, 55.464064)"><g><path d="M 6.515625 0 L 6.515625 -43.375 L 11.390625 -43.375 L 11.390625 -4.453125 L 29.9375 -4.453125 L 29.9375 0 Z M 6.515625 0 "/></g></g></g><g fill="#de0f3f" fill-opacity="1"><g transform="translate(162.439756, 55.464064)"><g><path d="M 7.859375 15.71875 L 7.859375 -47.09375 L 11.203125 -47.09375 L 11.203125 15.71875 Z M 7.859375 15.71875 "/></g></g><g transform="translate(181.504652, 55.464064)"><g><path d="M 7.859375 15.71875 L 7.859375 -47.09375 L 11.203125 -47.09375 L 11.203125 15.71875 Z M 7.859375 15.71875 "/></g></g></g><g fill="#000000" fill-opacity="1"><g transform="translate(200.578318, 55.464064)"><g><path d="M 6.515625 0 L 6.515625 -43.375 L 34.328125 -43.375 L 34.328125 -39.171875 L 11.390625 -39.171875 L 11.390625 -23.765625 L 31.625 -23.765625 L 31.625 -19.671875 L 11.390625 -19.671875 L 11.390625 0 Z M 6.515625 0 "/></g></g><g transform="translate(237.295894, 55.464064)"><g><path d="M 1.9375 0 L 18.234375 -43.375 L 21.984375 -43.375 L 38.15625 0 L 32.9375 0 L 29.625 -9.421875 L 10.5625 -9.421875 L 7.25 0 Z M 12.1875 -13.875 L 27.96875 -13.875 L 20.140625 -36.234375 Z M 12.1875 -13.875 "/></g></g><g transform="translate(277.390504, 55.464064)"><g><path d="M 6.515625 0 L 6.515625 -43.375 L 11.390625 -43.375 L 11.390625 -17.921875 L 35.375 -43.375 L 41.625 -43.375 L 25.234375 -26.28125 L 42.640625 0 L 36.78125 0 L 21.984375 -22.9375 L 11.390625 -11.96875 L 11.390625 0 Z M 6.515625 0 "/></g></g><g transform="translate(321.967361, 55.464064)"><g><path d="M 6.515625 0 L 6.515625 -43.375 L 34.59375 -43.375 L 34.59375 -39.171875 L 11.390625 -39.171875 L 11.390625 -23.765625 L 31.5625 -23.765625 L 31.5625 -19.671875 L 11.390625 -19.671875 L 11.390625 -4.453125 L 34.59375 -4.453125 L 34.59375 0 Z M 6.515625 0 "/></g></g></g></svg>