<svg width="325" height="300" viewBox="0 0 325 300" fill="none" xmlns="http://www.w3.org/2000/svg">
<path d="M169.663 20.7641L189.765 25.1964" stroke="black" stroke-width="0.528" stroke-linecap="round" stroke-linejoin="round"/>
<path d="M172.564 285.579L79.6404 265.095C69.8251 262.934 63.5387 252.998 65.6724 243.062L113.334 20.5898C115.468 10.6338 125.242 4.25886 135.056 6.42155L227.984 26.9051C237.793 29.0694 244.079 39.0009 241.947 48.937L194.286 271.409C192.152 281.365 182.39 287.74 172.564 285.579Z" stroke="black" stroke-width="0.264" stroke-miterlimit="10"/>
<path d="M216.956 31.0502L210.799 29.6899C209.186 34.4585 204.379 37.4052 199.545 36.3369L155.996 26.7385C151.157 25.6748 147.975 20.9658 148.48 15.9572L142.319 14.5969C130.625 12.0216 118.931 19.876 116.307 32.0543L73.1173 233.775C70.5083 245.954 77.9547 258.027 89.6485 260.606L164.247 277.055C175.939 279.635 187.633 271.781 190.258 259.599L233.48 57.8812C236.089 45.7029 228.641 33.6255 216.947 31.0502" fill="#CDE5F9"/>
<mask id="mask0_0_139" style="mask-type:alpha" maskUnits="userSpaceOnUse" x="72" y="14" width="163" height="264">
<path d="M216.956 31.0502L210.799 29.6899C209.186 34.4585 204.379 37.4052 199.545 36.3369L155.996 26.7385C151.157 25.6748 147.975 20.9658 148.48 15.9572L142.319 14.5969C130.625 12.0216 118.931 19.876 116.307 32.0543L73.1173 233.775C70.5083 245.954 77.9547 258.027 89.6485 260.606L164.247 277.055C175.939 279.635 187.633 271.781 190.258 259.599L233.48 57.8812C236.089 45.7029 228.641 33.6255 216.947 31.0502" fill="#CDE5F9"/>
</mask>
<g mask="url(#mask0_0_139)">
<path d="M215.252 131.764C207.084 126.395 198.216 122.175 188.898 119.224C173.827 114.391 154.092 111.864 134.744 120.517C127.46 123.818 120.788 128.327 115.008 133.853L108.171 138.686L70.6046 129.646L68.1179 136.378C68.1179 136.378 89.3198 153.25 102.427 156.766C105.755 157.661 109.464 158.71 113.034 158.233C119.677 157.352 124.306 157.328 129.845 153.932C131.75 152.763 139.294 145.478 141.461 142.226L146.688 162.191L186.164 159.64L188.287 142.665C189.818 142.729 192.15 144.36 193.573 144.991C195.284 145.747 196.989 146.518 198.72 147.239C202.881 148.978 207.173 150.814 211.583 151.898C212.463 152.127 218.048 153.528 218.469 152.734L222.448 141.297L223.547 136.559L215.252 131.764Z" fill="#58C1CC"/>
<mask id="mask1_0_139" style="mask-type:alpha" maskUnits="userSpaceOnUse" x="68" y="114" width="156" height="49">
<path d="M215.252 131.764C207.084 126.395 198.216 122.175 188.898 119.224C173.827 114.391 154.092 111.864 134.744 120.517C127.46 123.818 120.788 128.327 115.008 133.853L108.171 138.686L70.6046 129.646L68.1179 136.378C68.1179 136.378 89.3198 153.25 102.427 156.766C105.755 157.661 109.464 158.71 113.034 158.233C119.677 157.352 124.306 157.328 129.845 153.932C131.75 152.763 139.294 145.478 141.461 142.226L146.688 162.191L186.164 159.64L188.287 142.665C189.818 142.729 192.15 144.36 193.573 144.991C195.284 145.747 196.989 146.518 198.72 147.239C202.881 148.978 207.173 150.814 211.583 151.898C212.463 152.127 218.048 153.528 218.469 152.734L222.448 141.297L223.547 136.559L215.252 131.764Z" fill="#58C1CC"/>
</mask>
<g mask="url(#mask1_0_139)">
<path d="M78.2419 121.874C78.7101 121.874 79.1591 121.688 79.4902 121.357C79.8212 121.026 80.0072 120.577 80.0072 120.108C80.0072 119.64 79.8212 119.191 79.4902 118.86C79.1591 118.529 78.7101 118.343 78.2419 118.343C77.7737 118.343 77.3247 118.529 76.9937 118.86C76.6626 119.191 76.4766 119.64 76.4766 120.108C76.4766 120.577 76.6626 121.026 76.9937 121.357C77.3247 121.688 77.7737 121.874 78.2419 121.874ZM92.6624 121.874C93.1306 121.874 93.5796 121.688 93.9106 121.357C94.2417 121.026 94.4277 120.577 94.4277 120.108C94.4277 119.64 94.2417 119.191 93.9106 118.86C93.5796 118.529 93.1306 118.343 92.6624 118.343C92.1942 118.343 91.7452 118.529 91.4141 118.86C91.0831 119.191 90.8971 119.64 90.8971 120.108C90.8971 120.577 91.0831 121.026 91.4141 121.357C91.7452 121.688 92.1942 121.874 92.6624 121.874ZM107.077 121.874C107.545 121.874 107.994 121.688 108.325 121.357C108.656 121.026 108.842 120.577 108.842 120.108C108.842 119.64 108.656 119.191 108.325 118.86C107.994 118.529 107.545 118.343 107.077 118.343C106.609 118.343 106.16 118.529 105.828 118.86C105.497 119.191 105.311 119.64 105.311 120.108C105.311 120.577 105.497 121.026 105.828 121.357C106.16 121.688 106.609 121.874 107.077 121.874ZM121.497 121.874C121.965 121.874 122.414 121.688 122.745 121.357C123.076 121.026 123.262 120.577 123.262 120.108C123.262 119.64 123.076 119.191 122.745 118.86C122.414 118.529 121.965 118.343 121.497 118.343C121.029 118.343 120.58 118.529 120.249 118.86C119.918 119.191 119.732 119.64 119.732 120.108C119.732 120.577 119.918 121.026 120.249 121.357C120.58 121.688 121.029 121.874 121.497 121.874ZM135.913 121.874C136.145 121.874 136.375 121.828 136.589 121.739C136.803 121.65 136.998 121.52 137.162 121.356C137.326 121.192 137.456 120.997 137.544 120.783C137.633 120.569 137.678 120.339 137.678 120.107C137.678 119.875 137.632 119.645 137.544 119.431C137.455 119.217 137.325 119.022 137.16 118.858C136.996 118.694 136.802 118.564 136.587 118.476C136.373 118.387 136.143 118.342 135.911 118.342C135.443 118.342 134.994 118.528 134.663 118.859C134.332 119.191 134.146 119.64 134.146 120.108C134.146 120.577 134.333 121.026 134.664 121.357C134.995 121.688 135.445 121.874 135.913 121.874ZM150.332 121.874C150.8 121.874 151.249 121.688 151.58 121.357C151.911 121.026 152.097 120.577 152.097 120.108C152.097 119.64 151.911 119.191 151.58 118.86C151.249 118.529 150.8 118.343 150.332 118.343C149.864 118.343 149.415 118.529 149.084 118.86C148.753 119.191 148.567 119.64 148.567 120.108C148.567 120.577 148.753 121.026 149.084 121.357C149.415 121.688 149.864 121.874 150.332 121.874ZM164.748 121.874C165.216 121.874 165.665 121.688 165.996 121.357C166.327 121.026 166.513 120.577 166.513 120.108C166.513 119.64 166.327 119.191 165.996 118.86C165.665 118.529 165.216 118.343 164.748 118.343C164.28 118.343 163.831 118.529 163.5 118.86C163.168 119.191 162.982 119.64 162.982 120.108C162.982 120.577 163.168 121.026 163.5 121.357C163.831 121.688 164.28 121.874 164.748 121.874ZM179.168 121.874C179.636 121.874 180.085 121.688 180.416 121.357C180.748 121.026 180.934 120.577 180.934 120.108C180.934 119.64 180.748 119.191 180.416 118.86C180.085 118.529 179.636 118.343 179.168 118.343C178.7 118.343 178.251 118.529 177.92 118.86C177.589 119.191 177.403 119.64 177.403 120.108C177.403 120.577 177.589 121.026 177.92 121.357C178.251 121.688 178.7 121.874 179.168 121.874ZM193.584 121.874C193.816 121.874 194.045 121.828 194.26 121.739C194.474 121.65 194.668 121.52 194.832 121.356C194.996 121.192 195.126 120.998 195.215 120.783C195.303 120.569 195.349 120.34 195.349 120.108C195.349 119.876 195.303 119.646 195.214 119.432C195.125 119.218 194.995 119.024 194.831 118.86C194.667 118.696 194.472 118.566 194.258 118.477C194.044 118.389 193.814 118.343 193.583 118.343C193.114 118.343 192.665 118.53 192.334 118.861C192.004 119.192 191.818 119.641 191.818 120.109C191.818 120.577 192.004 121.026 192.336 121.357C192.667 121.688 193.116 121.874 193.584 121.874ZM208.003 121.874C208.471 121.874 208.92 121.688 209.251 121.357C209.582 121.026 209.768 120.577 209.768 120.108C209.768 119.64 209.582 119.191 209.251 118.86C208.92 118.529 208.471 118.343 208.003 118.343C207.535 118.343 207.086 118.529 206.755 118.86C206.424 119.191 206.238 119.64 206.238 120.108C206.238 120.577 206.424 121.026 206.755 121.357C207.086 121.688 207.535 121.874 208.003 121.874ZM222.423 121.874C222.892 121.874 223.341 121.688 223.672 121.357C224.003 121.026 224.189 120.577 224.189 120.108C224.189 119.64 224.003 119.191 223.672 118.86C223.341 118.529 222.892 118.343 222.423 118.343C221.955 118.343 221.506 118.529 221.175 118.86C220.844 119.191 220.658 119.64 220.658 120.108C220.658 120.577 220.844 121.026 221.175 121.357C221.506 121.688 221.955 121.874 222.423 121.874ZM78.2419 134.226C78.7101 134.226 79.1591 134.04 79.4902 133.709C79.8212 133.378 80.0072 132.929 80.0072 132.461C80.0072 131.993 79.8212 131.544 79.4902 131.213C79.1591 130.882 78.7101 130.696 78.2419 130.696C77.7737 130.696 77.3247 130.882 76.9937 131.213C76.6626 131.544 76.4766 131.993 76.4766 132.461C76.4766 132.929 76.6626 133.378 76.9937 133.709C77.3247 134.04 77.7737 134.226 78.2419 134.226ZM92.6624 134.226C93.1306 134.226 93.5796 134.04 93.9106 133.709C94.2417 133.378 94.4277 132.929 94.4277 132.461C94.4277 131.993 94.2417 131.544 93.9106 131.213C93.5796 130.882 93.1306 130.696 92.6624 130.696C92.1942 130.696 91.7452 130.882 91.4141 131.213C91.0831 131.544 90.8971 131.993 90.8971 132.461C90.8971 132.929 91.0831 133.378 91.4141 133.709C91.7452 134.04 92.1942 134.226 92.6624 134.226ZM107.077 134.226C107.545 134.226 107.994 134.04 108.325 133.709C108.656 133.378 108.842 132.929 108.842 132.461C108.842 131.993 108.656 131.544 108.325 131.213C107.994 130.882 107.545 130.696 107.077 130.696C106.609 130.696 106.16 130.882 105.828 131.213C105.497 131.544 105.311 131.993 105.311 132.461C105.311 132.929 105.497 133.378 105.828 133.709C106.16 134.04 106.609 134.226 107.077 134.226ZM121.497 134.226C121.965 134.226 122.414 134.04 122.745 133.709C123.076 133.378 123.262 132.929 123.262 132.461C123.262 131.993 123.076 131.544 122.745 131.213C122.414 130.882 121.965 130.696 121.497 130.696C121.029 130.696 120.58 130.882 120.249 131.213C119.918 131.544 119.732 131.993 119.732 132.461C119.732 132.929 119.918 133.378 120.249 133.709C120.58 134.04 121.029 134.226 121.497 134.226ZM135.913 134.226C136.145 134.226 136.375 134.18 136.589 134.092C136.803 134.003 136.998 133.873 137.162 133.708C137.326 133.544 137.456 133.35 137.544 133.135C137.633 132.921 137.678 132.691 137.678 132.459C137.678 132.228 137.632 131.998 137.544 131.784C137.455 131.569 137.325 131.375 137.16 131.211C136.996 131.047 136.802 130.917 136.587 130.828C136.373 130.74 136.143 130.694 135.911 130.694C135.443 130.694 134.994 130.881 134.663 131.212C134.332 131.543 134.146 131.993 134.146 132.461C134.146 132.929 134.333 133.379 134.664 133.71C134.995 134.041 135.445 134.227 135.913 134.226ZM150.332 134.226C150.8 134.226 151.249 134.04 151.58 133.709C151.911 133.378 152.097 132.929 152.097 132.461C152.097 131.993 151.911 131.544 151.58 131.213C151.249 130.882 150.8 130.696 150.332 130.696C149.864 130.696 149.415 130.882 149.084 131.213C148.753 131.544 148.567 131.993 148.567 132.461C148.567 132.929 148.753 133.378 149.084 133.709C149.415 134.04 149.864 134.226 150.332 134.226ZM164.748 134.226C165.216 134.226 165.665 134.04 165.996 133.709C166.327 133.378 166.513 132.929 166.513 132.461C166.513 131.993 166.327 131.544 165.996 131.213C165.665 130.882 165.216 130.696 164.748 130.696C164.28 130.696 163.831 130.882 163.5 131.213C163.168 131.544 162.982 131.993 162.982 132.461C162.982 132.929 163.168 133.378 163.5 133.709C163.831 134.04 164.28 134.226 164.748 134.226ZM179.168 134.226C179.636 134.226 180.085 134.04 180.416 133.709C180.748 133.378 180.934 132.929 180.934 132.461C180.934 131.993 180.748 131.544 180.416 131.213C180.085 130.882 179.636 130.696 179.168 130.696C178.7 130.696 178.251 130.882 177.92 131.213C177.589 131.544 177.403 131.993 177.403 132.461C177.403 132.929 177.589 133.378 177.92 133.709C178.251 134.04 178.7 134.226 179.168 134.226ZM193.584 134.226C194.052 134.226 194.501 134.04 194.832 133.709C195.163 133.378 195.349 132.928 195.349 132.46C195.348 131.992 195.162 131.543 194.831 131.212C194.5 130.881 194.051 130.696 193.583 130.696C193.351 130.696 193.121 130.742 192.907 130.83C192.693 130.919 192.498 131.049 192.334 131.213C192.004 131.545 191.818 131.994 191.818 132.462C191.818 132.93 192.004 133.379 192.336 133.71C192.667 134.041 193.116 134.227 193.584 134.226ZM208.003 134.226C208.471 134.226 208.92 134.04 209.251 133.709C209.582 133.378 209.768 132.929 209.768 132.461C209.768 131.993 209.582 131.544 209.251 131.213C208.92 130.882 208.471 130.696 208.003 130.696C207.535 130.696 207.086 130.882 206.755 131.213C206.424 131.544 206.238 131.993 206.238 132.461C206.238 132.929 206.424 133.378 206.755 133.709C207.086 134.04 207.535 134.226 208.003 134.226ZM222.423 134.226C222.892 134.226 223.341 134.04 223.672 133.709C224.003 133.378 224.189 132.929 224.189 132.461C224.189 131.993 224.003 131.544 223.672 131.213C223.341 130.882 222.892 130.696 222.423 130.696C221.955 130.696 221.506 130.882 221.175 131.213C220.844 131.544 220.658 131.993 220.658 132.461C220.658 132.929 220.844 133.378 221.175 133.709C221.506 134.04 221.955 134.226 222.423 134.226ZM78.2419 146.573C78.7101 146.573 79.1591 146.387 79.4902 146.056C79.8212 145.725 80.0072 145.276 80.0072 144.807C80.0072 144.339 79.8212 143.89 79.4902 143.559C79.1591 143.228 78.7101 143.042 78.2419 143.042C77.7737 143.042 77.3247 143.228 76.9937 143.559C76.6626 143.89 76.4766 144.339 76.4766 144.807C76.4766 145.276 76.6626 145.725 76.9937 146.056C77.3247 146.387 77.7737 146.573 78.2419 146.573ZM92.6624 146.573C93.1306 146.573 93.5796 146.387 93.9106 146.056C94.2417 145.725 94.4277 145.276 94.4277 144.807C94.4277 144.339 94.2417 143.89 93.9106 143.559C93.5796 143.228 93.1306 143.042 92.6624 143.042C92.1942 143.042 91.7452 143.228 91.4141 143.559C91.0831 143.89 90.8971 144.339 90.8971 144.807C90.8971 145.276 91.0831 145.725 91.4141 146.056C91.7452 146.387 92.1942 146.573 92.6624 146.573ZM107.077 146.573C107.545 146.573 107.994 146.387 108.325 146.056C108.656 145.725 108.842 145.276 108.842 144.807C108.842 144.339 108.656 143.89 108.325 143.559C107.994 143.228 107.545 143.042 107.077 143.042C106.609 143.042 106.16 143.228 105.828 143.559C105.497 143.89 105.311 144.339 105.311 144.807C105.311 145.276 105.497 145.725 105.828 146.056C106.16 146.387 106.609 146.573 107.077 146.573ZM121.497 146.573C121.965 146.573 122.414 146.387 122.745 146.056C123.076 145.725 123.262 145.276 123.262 144.807C123.262 144.339 123.076 143.89 122.745 143.559C122.414 143.228 121.965 143.042 121.497 143.042C121.029 143.042 120.58 143.228 120.249 143.559C119.918 143.89 119.732 144.339 119.732 144.807C119.732 145.276 119.918 145.725 120.249 146.056C120.58 146.387 121.029 146.573 121.497 146.573ZM135.913 146.573C136.381 146.573 136.831 146.386 137.162 146.055C137.493 145.724 137.678 145.274 137.678 144.806C137.678 144.337 137.492 143.888 137.16 143.557C136.829 143.226 136.38 143.04 135.911 143.041C135.68 143.041 135.45 143.086 135.236 143.175C135.021 143.264 134.827 143.394 134.663 143.558C134.332 143.89 134.146 144.339 134.146 144.807C134.146 145.276 134.333 145.725 134.664 146.056C134.995 146.387 135.445 146.573 135.913 146.573ZM150.332 146.573C150.8 146.573 151.249 146.387 151.58 146.056C151.911 145.725 152.097 145.276 152.097 144.807C152.097 144.339 151.911 143.89 151.58 143.559C151.249 143.228 150.8 143.042 150.332 143.042C149.864 143.042 149.415 143.228 149.084 143.559C148.753 143.89 148.567 144.339 148.567 144.807C148.567 145.276 148.753 145.725 149.084 146.056C149.415 146.387 149.864 146.573 150.332 146.573ZM164.748 146.573C165.216 146.573 165.665 146.387 165.996 146.056C166.327 145.725 166.513 145.276 166.513 144.807C166.513 144.339 166.327 143.89 165.996 143.559C165.665 143.228 165.216 143.042 164.748 143.042C164.28 143.042 163.831 143.228 163.5 143.559C163.168 143.89 162.982 144.339 162.982 144.807C162.982 145.276 163.168 145.725 163.5 146.056C163.831 146.387 164.28 146.573 164.748 146.573ZM179.168 146.573C179.636 146.573 180.085 146.387 180.416 146.056C180.748 145.725 180.934 145.276 180.934 144.807C180.934 144.339 180.748 143.89 180.416 143.559C180.085 143.228 179.636 143.042 179.168 143.042C178.7 143.042 178.251 143.228 177.92 143.559C177.589 143.89 177.403 144.339 177.403 144.807C177.403 145.276 177.589 145.725 177.92 146.056C178.251 146.387 178.7 146.573 179.168 146.573ZM193.584 146.573C194.052 146.573 194.501 146.386 194.832 146.055C195.163 145.724 195.349 145.275 195.349 144.807C195.348 144.338 195.162 143.89 194.831 143.559C194.5 143.228 194.051 143.042 193.583 143.042C193.351 143.042 193.121 143.088 192.907 143.177C192.693 143.266 192.498 143.396 192.334 143.56C192.004 143.891 191.818 144.34 191.818 144.808C191.818 145.276 192.004 145.725 192.336 146.056C192.667 146.387 193.116 146.573 193.584 146.573ZM208.003 146.573C208.471 146.573 208.92 146.387 209.251 146.056C209.582 145.725 209.768 145.276 209.768 144.807C209.768 144.339 209.582 143.89 209.251 143.559C208.92 143.228 208.471 143.042 208.003 143.042C207.535 143.042 207.086 143.228 206.755 143.559C206.424 143.89 206.238 144.339 206.238 144.807C206.238 145.276 206.424 145.725 206.755 146.056C207.086 146.387 207.535 146.573 208.003 146.573ZM222.423 146.573C222.892 146.573 223.341 146.387 223.672 146.056C224.003 145.725 224.189 145.276 224.189 144.807C224.189 144.339 224.003 143.89 223.672 143.559C223.341 143.228 222.892 143.042 222.423 143.042C221.955 143.042 221.506 143.228 221.175 143.559C220.844 143.89 220.658 144.339 220.658 144.807C220.658 145.276 220.844 145.725 221.175 146.056C221.506 146.387 221.955 146.573 222.423 146.573ZM78.2419 158.924C78.7101 158.924 79.1591 158.738 79.4902 158.407C79.8212 158.076 80.0072 157.627 80.0072 157.158C80.0072 156.69 79.8212 156.241 79.4902 155.91C79.1591 155.579 78.7101 155.393 78.2419 155.393C77.7737 155.393 77.3247 155.579 76.9937 155.91C76.6626 156.241 76.4766 156.69 76.4766 157.158C76.4766 157.627 76.6626 158.076 76.9937 158.407C77.3247 158.738 77.7737 158.924 78.2419 158.924ZM92.6624 158.924C93.1306 158.924 93.5796 158.738 93.9106 158.407C94.2417 158.076 94.4277 157.627 94.4277 157.158C94.4277 156.69 94.2417 156.241 93.9106 155.91C93.5796 155.579 93.1306 155.393 92.6624 155.393C92.1942 155.393 91.7452 155.579 91.4141 155.91C91.0831 156.241 90.8971 156.69 90.8971 157.158C90.8971 157.627 91.0831 158.076 91.4141 158.407C91.7452 158.738 92.1942 158.924 92.6624 158.924ZM107.077 158.924C107.545 158.924 107.994 158.738 108.325 158.407C108.656 158.076 108.842 157.627 108.842 157.158C108.842 156.69 108.656 156.241 108.325 155.91C107.994 155.579 107.545 155.393 107.077 155.393C106.609 155.393 106.16 155.579 105.828 155.91C105.497 156.241 105.311 156.69 105.311 157.158C105.311 157.627 105.497 158.076 105.828 158.407C106.16 158.738 106.609 158.924 107.077 158.924ZM121.497 158.924C121.965 158.924 122.414 158.738 122.745 158.407C123.076 158.076 123.262 157.627 123.262 157.158C123.262 156.69 123.076 156.241 122.745 155.91C122.414 155.579 121.965 155.393 121.497 155.393C121.029 155.393 120.58 155.579 120.249 155.91C119.918 156.241 119.732 156.69 119.732 157.158C119.732 157.627 119.918 158.076 120.249 158.407C120.58 158.738 121.029 158.924 121.497 158.924ZM135.913 158.924C136.381 158.923 136.831 158.737 137.162 158.406C137.493 158.075 137.678 157.625 137.678 157.157C137.678 156.688 137.492 156.239 137.16 155.908C136.829 155.577 136.38 155.391 135.911 155.392C135.68 155.392 135.45 155.437 135.236 155.526C135.021 155.615 134.827 155.745 134.663 155.909C134.332 156.241 134.146 156.69 134.146 157.158C134.146 157.627 134.333 158.076 134.664 158.407C134.995 158.738 135.445 158.924 135.913 158.924ZM150.332 158.924C150.8 158.924 151.249 158.738 151.58 158.407C151.911 158.076 152.097 157.627 152.097 157.158C152.097 156.69 151.911 156.241 151.58 155.91C151.249 155.579 150.8 155.393 150.332 155.393C149.864 155.393 149.415 155.579 149.084 155.91C148.753 156.241 148.567 156.69 148.567 157.158C148.567 157.627 148.753 158.076 149.084 158.407C149.415 158.738 149.864 158.924 150.332 158.924ZM164.748 158.924C165.216 158.924 165.665 158.738 165.996 158.407C166.327 158.076 166.513 157.627 166.513 157.158C166.513 156.69 166.327 156.241 165.996 155.91C165.665 155.579 165.216 155.393 164.748 155.393C164.28 155.393 163.831 155.579 163.5 155.91C163.168 156.241 162.982 156.69 162.982 157.158C162.982 157.627 163.168 158.076 163.5 158.407C163.831 158.738 164.28 158.924 164.748 158.924ZM179.168 158.924C179.636 158.924 180.085 158.738 180.416 158.407C180.748 158.076 180.934 157.627 180.934 157.158C180.934 156.69 180.748 156.241 180.416 155.91C180.085 155.579 179.636 155.393 179.168 155.393C178.7 155.393 178.251 155.579 177.92 155.91C177.589 156.241 177.403 156.69 177.403 157.158C177.403 157.627 177.589 158.076 177.92 158.407C178.251 158.738 178.7 158.924 179.168 158.924ZM193.584 158.924C194.052 158.923 194.501 158.737 194.832 158.406C195.163 158.075 195.349 157.626 195.349 157.158C195.348 156.689 195.162 156.241 194.831 155.91C194.5 155.579 194.051 155.393 193.583 155.393C193.351 155.393 193.121 155.439 192.907 155.528C192.693 155.617 192.498 155.747 192.334 155.911C192.004 156.242 191.818 156.691 191.818 157.159C191.818 157.627 192.004 158.076 192.336 158.407C192.667 158.738 193.116 158.924 193.584 158.924ZM208.003 158.924C208.471 158.924 208.92 158.738 209.251 158.407C209.582 158.076 209.768 157.627 209.768 157.158C209.768 156.69 209.582 156.241 209.251 155.91C208.92 155.579 208.471 155.393 208.003 155.393C207.535 155.393 207.086 155.579 206.755 155.91C206.424 156.241 206.238 156.69 206.238 157.158C206.238 157.627 206.424 158.076 206.755 158.407C207.086 158.738 207.535 158.924 208.003 158.924ZM222.423 158.924C222.892 158.924 223.341 158.738 223.672 158.407C224.003 158.076 224.189 157.627 224.189 157.158C224.189 156.69 224.003 156.241 223.672 155.91C223.341 155.579 222.892 155.393 222.423 155.393C221.955 155.393 221.506 155.579 221.175 155.91C220.844 156.241 220.658 156.69 220.658 157.158C220.658 157.627 220.844 158.076 221.175 158.407C221.506 158.738 221.955 158.924 222.423 158.924Z" fill="#69DDE2"/>
</g>
<path d="M225.471 235.201L222.264 241.884L221.881 242.695L218.191 250.452C218.191 250.452 165.205 223.407 161.009 195.676C157.309 171.36 160.049 153.096 160.049 153.096L181.391 156.498C191.102 161.047 193.165 174.095 190.793 187.599C189.094 197.262 189.844 206.669 192.986 210.846C200.227 220.503 225.471 235.201 225.471 235.201Z" fill="#0A42BF"/>
</g>
<path d="M103.06 270.749C100.366 274.697 95.5267 271.863 94.0304 276.636L110.938 281.61L112.597 272.375L103.06 270.749Z" fill="black"/>
<path d="M147.589 158.442C142.447 183.175 114.343 231.079 102.1 270.968L115.426 274.851C122.209 257.716 128.927 244.097 140.159 231.516C141.476 230.025 142.82 228.577 144.173 227.116C162.133 207.779 182.56 189.519 186.324 159.451L147.589 158.442Z" fill="#3458DD"/>
<path d="M100.048 276.045C99.5697 275.001 98.9988 274.003 98.342 273.061C98.1983 272.852 97.94 273.126 98.0837 273.335C98.7165 274.244 99.2667 275.207 99.7298 276.214C99.8383 276.462 100.156 276.279 100.048 276.045ZM101.056 275.383C100.54 274.562 100.02 273.743 99.5005 272.927C99.366 272.708 99.097 272.973 99.2315 273.185L100.783 275.643C100.937 275.857 101.191 275.597 101.056 275.383Z" fill="white"/>
<path d="M161.04 108.742C163.869 110.732 166.36 109.966 167.623 107.956C168.792 106.087 168.199 102.984 165.489 102.686C164.384 102.589 163.272 102.759 162.247 103.183C161.725 103.666 161.258 104.207 160.855 104.794C160.04 105.992 159.453 107.628 161.04 108.742Z" fill="#EFD1D8"/>
<path d="M159.502 111.745C153.236 113.362 149.731 109.313 149.806 104.039C149.835 101.696 150.084 99.1648 151.362 97.1565C151.903 96.2336 152.633 95.436 153.505 94.8163C154.377 94.1966 155.37 93.769 156.42 93.5617C160.924 92.7899 165.264 96.2456 166.116 101.268V101.318C166.508 103.568 166.048 105.882 164.825 107.81C163.602 109.738 161.704 111.141 159.502 111.745Z" fill="#EFD1D8"/>
<path d="M162.565 106.231C162.939 105.601 163.514 105.117 164.197 104.856C164.881 104.595 165.632 104.573 166.33 104.794C166.716 104.918 166.583 105.54 166.191 105.416C165.631 105.226 165.023 105.233 164.467 105.434C163.912 105.636 163.441 106.02 163.132 106.524C162.923 106.872 162.356 106.579 162.565 106.231ZM163.307 103.75C163.079 103.891 162.809 103.945 162.545 103.904C161.859 103.69 161.317 102.746 160.884 102.223C160.053 101.175 159.092 100.236 158.024 99.4292C156.608 98.3945 148.901 97.6287 148.901 94.8684C148.901 90.8411 154.271 93.9239 156.42 93.5617C160.924 92.7898 167.001 95.9536 166.363 102.879C166.363 103.029 165.211 103.198 165.092 103.223C164.646 103.297 164.206 103.398 163.773 103.525C163.614 103.592 163.458 103.667 163.307 103.75Z" fill="black"/>
<path d="M165.792 99.0059C163.898 97.9069 164.046 97.6685 161.764 97.132C161.835 92.1342 170.218 85.2717 179.064 89.5833C183.041 91.5381 183.798 96.0927 183.893 96.4152C188.024 95.1772 193.369 95.4554 196.581 97.6685C201.27 100.895 199.496 106.509 194.593 109C189.253 111.73 181.719 111.248 176.05 108.936C167.069 105.271 169.367 96.8585 168.521 96.724C167.453 96.5451 166.324 98.1805 165.792 99.0059Z" fill="black"/>
<path d="M160.392 108.32L154.946 108.872L155.698 116.316L161.145 115.766L160.392 108.32Z" fill="#EFD1D8"/>
<path d="M158.906 96.0927C159.64 94.9872 160.473 93.9503 161.393 92.9946C164.829 89.3494 171.626 84.327 180.422 88.7136" stroke="black" stroke-width="0.325" stroke-miterlimit="10"/>
<path d="M154.983 102.929C155.226 102.711 155.263 102.355 155.064 102.134C154.865 101.914 154.508 101.911 154.265 102.13C154.022 102.348 153.985 102.705 154.184 102.925C154.382 103.146 154.74 103.148 154.983 102.929ZM151.358 106.286C151.165 105.051 151.153 103.794 151.322 102.556C151.373 102.194 151.94 102.199 151.889 102.556C151.725 103.747 151.736 104.955 151.92 106.142C151.975 106.495 151.413 106.634 151.358 106.286Z" fill="#010344"/>
<path d="M72.0519 131.113C72.0519 131.113 56.8566 118.99 54.4387 126.583C54.4387 126.583 50.5061 132.148 69.7639 136.394L72.0519 131.113Z" fill="#EFD1D8"/>
<path d="M188.898 119.224C198.216 122.175 207.084 126.395 215.252 131.764L211.583 151.898C207.173 150.814 202.881 148.978 198.72 147.239C196.989 146.518 195.284 145.747 193.573 144.991C192.15 144.36 189.818 142.729 188.287 142.665L186.164 159.64L146.688 162.191L141.461 142.226C139.294 145.478 131.75 152.763 129.845 153.932C124.306 157.328 119.677 157.352 113.034 158.233C109.464 158.71 105.755 157.661 102.427 156.766C89.3198 153.25 68.1179 136.378 68.1179 136.378L70.6046 129.646L108.171 138.686L115.008 133.853C120.788 128.327 127.46 123.818 134.744 120.517C154.092 111.864 173.826 114.391 188.898 119.224Z" fill="#58C1CC"/>
<path d="M66.8202 129.105C66.8202 129.105 63.5984 125.265 65.9796 124.629C65.9796 124.629 67.8595 123.908 69.7441 129.666" fill="#EFD1D8"/>
<path d="M66.8202 129.105C66.8202 129.105 63.5984 125.265 65.9796 124.629C65.9796 124.629 67.8595 123.908 69.7441 129.666" stroke="black" stroke-width="0.325" stroke-miterlimit="10"/>
<path d="M161.312 112.236L154.865 112.887L155.224 116.448L161.671 115.797L161.312 112.236Z" fill="#58C1CC"/>
<path d="M116.877 271.241L103.189 267.359" stroke="black" stroke-width="0.325" stroke-miterlimit="10"/>
<path d="M151.536 169.725L166.732 167.631M159.114 168.679C156.389 186.58 144.594 204.203 134.949 218.901C129.702 226.902 125.118 235.396 120.707 243.878C116.634 251.714 112.085 259.994 110.091 268.666" stroke="white" stroke-width="0.325" stroke-miterlimit="10"/>
<path d="M178.76 184.055C178.76 184.055 173.033 196.933 164.286 205.281" stroke="black" stroke-width="0.325" stroke-miterlimit="10"/>
<path d="M102.429 156.785C102.429 156.785 109.683 148.278 118.414 156.73C118.405 156.73 112.772 160.181 102.429 156.785Z" fill="#3458DD"/>
<path d="M140 136.06L146.679 162.211M189.565 133.948L186.612 159.501" stroke="black" stroke-width="0.325" stroke-miterlimit="10"/>
<path d="M195.851 102.024C195.379 103.413 194.508 104.631 193.348 105.528C192.187 106.425 190.789 106.96 189.326 107.067" stroke="white" stroke-width="0.325" stroke-miterlimit="10"/>
<path d="M108.079 162.797C108.079 162.797 120.73 167.978 129.746 160.611" stroke="#221715" stroke-width="0.264" stroke-miterlimit="10"/>
<path d="M127.002 27.2307L139.878 30.0705M126.18 30.3288L135.942 32.4808M125.442 33.7753L133.261 35.4978" stroke="black" stroke-width="0.528" stroke-linecap="round" stroke-linejoin="round"/>
<path d="M222.309 258.539C222.309 258.539 219.68 275.212 204.289 278.321" stroke="#221715" stroke-width="0.264" stroke-miterlimit="10"/>
<path opacity="0.44" d="M308.601 55.1377H224.258C223.259 55.1447 222.272 55.3486 221.352 55.7376C220.433 56.1266 219.599 56.6932 218.899 57.4049C218.198 58.1165 217.645 58.9594 217.271 59.8851C216.897 60.8108 216.709 61.8012 216.718 62.7996V105.905C216.708 106.903 216.896 107.894 217.27 108.82C217.645 109.745 218.198 110.588 218.899 111.299C219.6 112.01 220.434 112.576 221.353 112.965C222.272 113.354 223.259 113.558 224.258 113.565H306.92C307.918 113.558 308.905 113.354 309.824 112.965C310.744 112.576 311.578 112.01 312.278 111.298C312.978 110.587 313.532 109.744 313.906 108.819C314.281 107.894 314.469 106.903 314.461 105.905V61.0328C314.465 60.2605 314.316 59.4951 314.023 58.7804C313.73 58.0658 313.3 57.416 312.755 56.8683C312.211 56.3205 311.563 55.8857 310.85 55.5888C310.138 55.2918 309.373 55.1385 308.601 55.1377Z" fill="#79A4E2"/>
<path d="M301.025 106.873H215.084C214.305 106.869 213.533 106.711 212.815 106.408C212.096 106.105 211.445 105.663 210.898 105.108C210.35 104.553 209.918 103.895 209.626 103.172C209.333 102.449 209.186 101.676 209.194 100.896V54.453C209.184 52.8798 209.798 51.3668 210.901 50.2453C211.448 49.6902 212.099 49.2483 212.817 48.9448C213.534 48.6414 214.305 48.4824 215.084 48.477H301.025C301.804 48.482 302.575 48.6406 303.293 48.9437C304.011 49.2467 304.663 49.6884 305.21 50.2434C305.758 50.7984 306.191 51.4558 306.484 52.1781C306.777 52.9004 306.925 53.6735 306.92 54.453V100.896C306.924 101.676 306.776 102.449 306.484 103.172C306.041 104.259 305.286 105.19 304.314 105.849C303.343 106.507 302.198 106.863 301.025 106.873Z" fill="#EBF4FD"/>
<path d="M226.717 59.6343C226.705 60.5085 226.435 61.3596 225.94 62.0806C225.446 62.8016 224.749 63.3604 223.938 63.6867C223.127 64.013 222.238 64.0922 221.382 63.9144C220.526 63.7366 219.741 63.3097 219.127 62.6874C218.513 62.0651 218.097 61.2751 217.93 60.4169C217.764 59.5586 217.855 58.6703 218.192 57.8636C218.529 57.057 219.097 56.368 219.825 55.8832C220.552 55.3985 221.407 55.1397 222.281 55.1393C223.165 55.1434 224.027 55.41 224.759 55.9053C225.49 56.4006 226.058 57.1022 226.39 57.921C226.61 58.4666 226.721 59.0474 226.717 59.6343Z" fill="#467EF6"/>
<path d="M239.072 97.2237C239.068 97.6133 238.977 97.9969 238.806 98.3472C238.636 98.6974 238.39 99.0054 238.086 99.2492C237.782 99.493 237.428 99.6664 237.049 99.757C236.67 99.8476 236.276 99.8531 235.895 99.7731C235.385 99.6665 234.918 99.412 234.553 99.0414C234.187 98.6709 233.939 98.2008 233.839 97.6899C233.766 97.3077 233.778 96.9141 233.874 96.5371C233.97 96.16 234.149 95.8088 234.396 95.5086C234.644 95.2084 234.954 94.9664 235.306 94.8C235.658 94.6336 236.042 94.5469 236.431 94.546C237.136 94.5512 237.811 94.8362 238.306 95.3383C238.801 95.8404 239.077 96.5185 239.072 97.2237ZM250.24 97.2237C250.232 97.7446 250.071 98.2516 249.776 98.6812C249.482 99.1107 249.067 99.4438 248.583 99.6386C248.222 99.7832 247.833 99.8463 247.444 99.8231C247.056 99.8 246.677 99.6914 246.335 99.5049C245.993 99.3184 245.697 99.0588 245.467 98.7445C245.237 98.4302 245.08 98.0691 245.006 97.6869C244.932 97.3044 244.945 96.9104 245.041 96.5332C245.138 96.156 245.317 95.8048 245.565 95.5047C245.813 95.2046 246.125 94.9631 246.477 94.7974C246.83 94.6317 247.214 94.5458 247.604 94.546C248.308 94.552 248.982 94.8374 249.476 95.3395C249.97 95.8415 250.245 96.5192 250.24 97.2237ZM261.422 97.2237C261.415 97.7445 261.254 98.2516 260.959 98.6812C260.665 99.1108 260.25 99.4439 259.767 99.6386C259.283 99.832 258.753 99.8785 258.243 99.7722C257.733 99.6659 257.266 99.4116 256.9 99.041C256.534 98.6701 256.286 98.1991 256.187 97.6874C256.089 97.1757 256.144 96.6463 256.346 96.1661C256.548 95.6858 256.887 95.2758 257.321 94.9875C257.755 94.6993 258.265 94.5457 258.786 94.546C259.49 94.5533 260.162 94.839 260.656 95.3408C261.15 95.8426 261.426 96.5196 261.422 97.2237Z" fill="#EFD853"/>
<path d="M237.44 70.5058H219.487C219.24 70.5025 219.005 70.402 218.831 70.2261C218.658 70.0501 218.561 69.8128 218.561 69.5658V69.0981C218.561 68.8512 218.658 68.6141 218.831 68.4384C219.005 68.2627 219.241 68.1625 219.487 68.1597H237.46C237.707 68.1629 237.943 68.2631 238.116 68.4387C238.29 68.6143 238.387 68.8512 238.388 69.0981V69.5505C238.387 69.7975 238.289 70.0343 238.116 70.21C237.942 70.3858 237.707 70.4865 237.46 70.4905M254.612 78.2196H219.212C219.124 78.2196 219.036 78.2014 218.954 78.1661C218.832 78.1128 218.727 78.025 218.654 77.9135C218.58 77.802 218.541 77.6715 218.54 77.5379V77.2109C218.538 77.1223 218.555 77.0344 218.589 76.9525C218.623 76.8703 218.672 76.7951 218.734 76.7309C218.862 76.6047 219.033 76.5325 219.212 76.5292H254.612C254.791 76.5312 254.962 76.6041 255.087 76.7318C255.213 76.8596 255.282 77.0318 255.281 77.2109V77.5379C255.282 77.6267 255.266 77.7149 255.233 77.7974C255.2 77.8798 255.151 77.9549 255.088 78.0183C255.026 78.0817 254.952 78.1321 254.87 78.1667C254.788 78.2012 254.7 78.2192 254.612 78.2196ZM261.422 74.365H219.212C219.033 74.3634 218.861 74.2907 218.735 74.163C218.609 74.0352 218.539 73.8628 218.54 73.6833V73.3562C218.538 73.2673 218.554 73.1788 218.588 73.0964C218.621 73.0139 218.671 72.939 218.734 72.8763C218.86 72.7483 219.032 72.6757 219.212 72.6746H261.422C261.602 72.6767 261.774 72.7491 261.901 72.8763C261.963 72.9395 262.013 73.0144 262.046 73.0968C262.08 73.1791 262.097 73.2673 262.096 73.3562V73.6833C262.096 73.8626 262.026 74.0348 261.901 74.1632C261.773 74.29 261.602 74.3623 261.422 74.365ZM261.144 82.6993H218.72C218.672 82.6993 218.626 82.6802 218.592 82.6461C218.558 82.6119 218.538 82.5657 218.538 82.5175V82.4288C218.538 82.3814 218.558 82.3356 218.592 82.3004C218.626 82.2671 218.672 82.2485 218.72 82.2485H261.144C261.167 82.2486 261.191 82.2535 261.212 82.2626C261.234 82.2718 261.254 82.2852 261.27 82.3019C261.286 82.3187 261.299 82.3385 261.308 82.3603C261.317 82.382 261.322 82.4053 261.321 82.4288V82.5175C261.321 82.5648 261.302 82.6101 261.269 82.644C261.236 82.6779 261.191 82.6977 261.144 82.6993ZM261.144 85.7806H218.72C218.672 85.779 218.626 85.7587 218.592 85.724C218.558 85.6892 218.539 85.6427 218.538 85.5941V85.5055C218.539 85.4573 218.558 85.4112 218.592 85.3771C218.626 85.3434 218.672 85.3242 218.72 85.3236H261.144C261.191 85.3252 261.236 85.345 261.269 85.3789C261.302 85.4128 261.321 85.4581 261.321 85.5055V85.5941C261.322 85.6424 261.304 85.6891 261.271 85.724C261.254 85.7412 261.235 85.7547 261.213 85.7638C261.191 85.774 261.168 85.7797 261.144 85.7806ZM233.52 89.5985H218.72C218.672 89.5985 218.626 89.5794 218.592 89.5452C218.558 89.5111 218.538 89.4649 218.538 89.4166V89.328C218.538 89.2791 218.558 89.2332 218.592 89.1981C218.626 89.1635 218.672 89.1437 218.72 89.1431H233.52C233.567 89.1431 233.613 89.1644 233.648 89.1981C233.682 89.233 233.7 89.2796 233.7 89.328V89.4166C233.7 89.4406 233.696 89.4643 233.687 89.4864C233.677 89.5084 233.664 89.5284 233.647 89.545C233.613 89.5789 233.567 89.5982 233.52 89.5985Z" fill="#467EF6"/>
<path opacity="0.55" d="M319.107 89.1431H281.724C280.846 89.133 280.007 88.7763 279.391 88.1508C278.775 87.5252 278.431 86.6815 278.435 85.8035V47.8992C278.431 47.0214 278.775 46.1778 279.391 45.5526C280.007 44.9275 280.846 44.5716 281.724 44.5627H319.107C319.985 44.572 320.824 44.9282 321.44 45.5535C322.057 46.1789 322.401 47.0226 322.397 47.9008V85.8035C322.401 86.6819 322.057 87.5261 321.441 88.1517C320.824 88.7774 319.985 89.1338 319.107 89.1431Z" fill="#CCDDF8"/>
<path d="M313.54 83.8517H276.153C275.274 83.8441 274.434 83.4884 273.818 82.8627C273.201 82.237 272.857 81.3923 272.862 80.5137V42.6094C272.858 41.7312 273.202 40.8872 273.819 40.2617C274.436 39.6363 275.275 39.2803 276.153 39.2714H313.54C314.419 39.2807 315.258 39.637 315.874 40.2627C316.491 40.8884 316.835 41.7326 316.831 42.611V80.5137C316.835 81.3921 316.491 82.2363 315.875 82.8618C315.258 83.4873 314.419 83.8432 313.54 83.8517Z" fill="#EA706A"/>
<path d="M305.472 36.0328H312.807C312.807 36.0328 319.605 35.3083 319.964 40.7509V49.8296" stroke="black" stroke-width="0.264" stroke-miterlimit="10"/>
<path d="M38.9392 138.941C58.2352 138.941 73.8784 123.298 73.8784 104.002C73.8784 84.7046 58.2352 69.0629 38.9392 69.0629C19.6432 69.0629 4 84.7046 4 104.002C4 123.298 19.6432 138.941 38.9392 138.941Z" fill="#57E6EA"/>
<path d="M19.5347 103.515L33.7656 114.55L58.3453 90.8488" stroke="white" stroke-width="3.43" stroke-miterlimit="10" stroke-linecap="round"/>
<path d="M294.04 60.5299C292.915 60.4012 291.835 60.012 290.887 59.3934C289.938 58.7747 289.147 57.9435 288.576 56.9657C287.641 55.4115 287.336 53.5593 287.721 51.7875C287.926 50.8068 288.332 49.8793 288.913 49.063C289.494 48.2467 290.237 47.5594 291.096 47.0442C291.956 46.5291 292.912 46.1972 293.906 46.0695C294.899 45.9417 295.909 46.0209 296.87 46.302C298.485 46.7736 299.885 47.7912 300.832 49.1809C301.779 50.5707 302.214 52.2463 302.063 53.9212C301.912 55.5962 301.183 57.1666 300.002 58.364C298.821 59.5613 297.261 60.3112 295.588 60.4856C295.6 60.5144 295.62 60.5389 295.646 60.5559C295.672 60.5712 295.703 60.5803 295.733 60.5788C298.178 60.753 300.5 61.7177 302.348 63.3273C304.196 64.9368 305.471 67.104 305.979 69.5016C306.304 71.1675 306.366 72.8732 306.164 74.5575C306.074 75.248 305.74 75.8836 305.223 76.35C304.706 76.8164 304.039 77.0832 303.343 77.1023H286.661C285.953 77.1371 285.256 76.9255 284.688 76.5034C284.12 76.0814 283.715 75.4752 283.544 74.7883C283.5 74.6436 283.471 74.4945 283.459 74.3436C283.403 72.0663 283.338 69.7844 284.266 67.6263C285.912 63.8251 288.765 61.5157 292.831 60.695C293.222 60.6308 293.624 60.5788 294.04 60.5299ZM294.847 75.0466H303.072C303.222 75.0643 303.373 75.0476 303.515 74.9978C303.657 74.948 303.785 74.8664 303.891 74.7594C303.996 74.6523 304.076 74.5225 304.123 74.38C304.171 74.2375 304.185 74.086 304.165 73.937V71.9929C304.17 71.0098 304.023 70.0318 303.73 69.0935C303.253 67.5991 302.408 66.2489 301.272 65.1673C300.136 64.0857 298.746 63.3077 297.23 62.905C295.714 62.5024 294.121 62.488 292.598 62.8633C291.075 63.2386 289.671 63.9915 288.516 65.0524C286.97 66.4734 285.948 68.3743 285.617 70.4477C285.499 71.5772 285.461 72.7112 285.504 73.8438C285.504 74.6875 285.855 75.0543 286.714 75.0543L294.847 75.0466ZM300.028 53.2715C300.027 52.2461 299.722 51.244 299.151 50.3919C298.581 49.5398 297.77 48.8758 296.823 48.484C295.875 48.0921 294.833 47.9899 293.827 48.1902C292.821 48.3906 291.898 48.8845 291.172 49.6096C290.447 50.3347 289.953 51.2585 289.753 52.2641C289.553 53.2698 289.655 54.3123 290.047 55.2599C290.439 56.2076 291.103 57.0178 291.955 57.5883C292.807 58.1587 293.809 58.4638 294.834 58.465C295.865 58.4742 296.875 58.173 297.733 57.6006C298.59 57.0282 299.256 56.211 299.643 55.2554C299.9 54.6196 300.026 53.941 300.016 53.2547L300.028 53.2715Z" fill="white"/>
</svg>
